# xmcd
#
# Track frame offsets: 
#        150
#        10057
#        32662
#        49587
#        75437
#        97025
#        118017
#        136615
#        157440
#        177187
#        198165
#        220280
#        237435
#
# Disc length: 3585 seconds
#
# Revision: 2
# Processed by: cddbd v1.5.2PL0 Copyright (c) Steve Scherf et al.
# Submitted via: ExactAudioCopy v1.3
#
DISCID=a70dff0d
DTITLE=横山輝一 - YOU GOT IT!
DYEAR=1989
DGENRE=JPop
TTITLE0=(We gonna get) FAKE
TTITLE1=EVERYBODY NEEDS SOMEBODY’S LOVE
TTITLE2=BREAK OUT
TTITLE3=REMEMBER
TTITLE4=BELIEVE IN MAGIC
TTITLE5=HEARTBREAK SURRENDER
TTITLE6=STATUS
TTITLE7=SMILE ON SEAT
TTITLE8=昨日のLONELY TEARS
TTITLE9=JAMMIN’NIGHT
TTITLE10=RHYTHM OF LOVE
TTITLE11=DECEMBER LOVE (LIVE)
TTITLE12=FREEDOM (LIVE)
EXTD=
EXTT0=
EXTT1=
EXTT2=
EXTT3=
EXTT4=
EXTT5=
EXTT6=
EXTT7=
EXTT8=
EXTT9=
EXTT10=
EXTT11=
EXTT12=
PLAYORDER=
